<svg width="420" height="359" viewBox="0 0 420 359" fill="none" xmlns="http://www.w3.org/2000/svg">
<path d="M417.138 358.725V186.549H420L419.855 186.328C419.855 186.328 419.855 186.328 419.859 186.328L419.544 185.842C419.544 185.839 419.543 185.839 419.543 185.839L417.497 182.678C417.497 182.678 417.497 182.678 417.5 182.678L417.206 182.223C417.203 182.223 417.203 182.227 417.203 182.227L416.617 181.319H416.442C416.442 181.317 416.444 181.315 416.446 181.313H415.893C415.889 181.315 415.889 181.317 415.889 181.319H413.75C413.75 181.317 413.75 181.315 413.749 181.313H413.194C413.194 181.315 413.196 181.317 413.196 181.319H411.443C411.443 181.317 411.447 181.315 411.447 181.313H410.891C410.891 181.315 410.891 181.317 410.891 181.319H408.75C408.75 181.317 408.75 181.315 408.747 181.313H408.197C408.197 181.315 408.197 181.317 408.201 181.319H406.448C406.448 181.317 406.448 181.315 406.448 181.313H405.894C405.894 181.315 405.894 181.317 405.891 181.319H403.754C403.754 181.317 403.752 181.315 403.752 181.313H403.201C403.201 181.315 403.201 181.317 403.201 181.319H401.449C401.449 181.317 401.45 181.315 401.452 181.313H400.898C400.898 181.315 400.896 181.317 400.896 181.319H398.76C398.76 181.317 398.757 181.315 398.757 181.313H398.2C398.2 181.315 398.2 181.317 398.205 181.319H396.449C396.452 181.317 396.452 181.315 396.452 181.313H395.903C395.903 181.315 395.898 181.317 395.895 181.319H393.764C393.764 181.317 393.764 181.315 393.761 181.313H393.206C393.206 181.315 393.206 181.317 393.21 181.319H391.526V160.921V159.353L391.953 159.615H391.958L393.458 160.531L393.486 160.461L393.698 159.981L393.695 159.977L394.702 157.631L394.531 157.52C394.532 157.522 394.534 157.522 394.536 157.522L393.739 157.016C393.739 157.018 393.739 157.02 393.741 157.02L391.932 155.868L391.733 155.743L390.872 155.192L390.485 154.948L386.359 152.325L386.16 152.194L385.564 151.817L385.372 151.694L382.718 150.006L382.39 149.797L381.234 149.06L380.929 148.869L376.952 146.337L376.717 146.187L375.637 145.501L374.865 145.011V145.006L374.864 145.008L374.859 145L374.853 145.02L373.921 145.614L373.685 145.764C373.685 145.764 373.685 145.764 373.685 145.766L372.779 146.342L372.534 146.494H372.537L368.451 149.095L368.396 149.129L364.437 151.645L364.148 151.831L363.547 152.212L363.528 152.227L358.878 155.181L358.834 155.21L355.898 157.077C355.899 157.073 355.9 157.073 355.903 157.073L355.532 157.308L355.023 157.633L355.496 158.731L355.501 158.747L356.017 159.949L356.223 160.435L356.268 160.536L357.927 159.527L358.185 159.37C358.185 159.367 358.185 159.367 358.185 159.367L358.198 159.358V160.924V181.318H356.487C356.487 181.316 356.487 181.314 356.489 181.312H355.932C355.932 181.314 355.932 181.316 355.93 181.318H353.798C353.798 181.316 353.796 181.314 353.796 181.312H353.241C353.244 181.314 353.244 181.316 353.244 181.318H351.49C351.492 181.316 351.494 181.314 351.496 181.312H350.939C350.939 181.314 350.936 181.316 350.936 181.318H348.801C348.801 181.316 348.8 181.314 348.8 181.312H348.25C348.25 181.314 348.25 181.316 348.25 181.318H346.499C346.499 181.316 346.499 181.314 346.501 181.312H345.945C345.945 181.314 345.943 181.316 345.94 181.318H343.816C343.81 181.316 343.81 181.314 343.809 181.312H343.259C343.261 181.314 343.261 181.316 343.261 181.318H341.51C341.51 181.316 341.51 181.314 341.51 181.312H340.961C340.961 181.314 340.96 181.316 340.957 181.318H338.822C338.822 181.316 338.822 181.314 338.818 181.312H338.268C338.268 181.314 338.272 181.316 338.272 181.318H336.518C336.52 181.316 336.52 181.314 336.524 181.312H335.964C335.964 181.314 335.964 181.316 335.96 181.318H333.831C333.83 181.316 333.827 181.314 333.827 181.312H333.272C333.272 181.314 333.276 181.316 333.276 181.318H333.114L332.566 182.172V170.467V169.113L335.175 170.134L336.854 167.623L310.068 156.718H310.067L310.058 156.713L310.05 156.73L300.695 160.535V156.918V156.123H301.371V153.928H290.587V156.123H291.266V156.918V164.373L283.273 167.627L284.951 170.134L287.563 169.115V170.47V180.584H276.831V183.064H277.602V183.963V184.915L268.512 177.294L268.498 177.274L268.492 177.28H268.488L249.426 193.268V179.007V177.477H253.31L252.883 176.798V176.797L252.736 176.56L252.732 176.564L252.46 176.126L252.297 175.872L251.994 175.39C251.994 175.387 251.994 175.387 251.994 175.387L251.842 175.149L251.237 174.189C251.237 174.189 251.237 174.191 251.242 174.193L250.495 173.007L250.149 172.466H249.434C249.434 172.466 249.434 172.466 249.434 172.462H249.091C249.091 172.466 249.091 172.466 249.091 172.466H247.94C247.94 172.466 247.94 172.466 247.94 172.462H247.597C247.597 172.466 247.597 172.466 247.597 172.466H246.316C246.316 172.466 246.319 172.466 246.319 172.462H245.975C245.975 172.466 245.972 172.466 245.972 172.466H244.824C244.824 172.466 244.824 172.466 244.824 172.462H244.475C244.478 172.466 244.478 172.466 244.478 172.466H243.197C243.197 172.466 243.197 172.466 243.197 172.462H242.851C242.851 172.466 242.851 172.466 242.851 172.466H241.699C241.699 172.466 241.699 172.466 241.699 172.462H241.356C241.359 172.466 241.359 172.466 241.359 172.466H240.077C240.077 172.466 240.077 172.466 240.077 172.462H239.736C239.736 172.466 239.736 172.466 239.73 172.466H238.58C238.58 172.466 238.58 172.466 238.58 172.462H238.237C238.237 172.466 238.237 172.466 238.237 172.466H236.954C236.954 172.466 236.954 172.466 236.956 172.462H236.614C236.614 172.466 236.614 172.466 236.611 172.466H235.461C235.461 172.466 235.461 172.466 235.46 172.462H235.114C235.114 172.466 235.114 172.466 235.114 172.466H233.837C233.837 172.466 233.837 172.466 233.837 172.462H233.488C233.488 172.466 233.488 172.466 233.488 172.466H232.34C232.34 172.466 232.34 172.466 232.34 172.462H231.998C231.998 172.466 231.998 172.466 231.998 172.466H230.715C230.715 172.466 230.715 172.466 230.715 172.462H230.372C230.372 172.466 230.372 172.466 230.372 172.466H229.218C229.218 172.466 229.218 172.466 229.218 172.462H228.876C228.876 172.466 228.876 172.466 228.876 172.466H227.593C227.598 172.466 227.598 172.466 227.598 172.462H227.252C227.252 172.466 227.252 172.466 227.252 172.466H226.098C226.098 172.466 226.098 172.466 226.098 172.462H225.758C225.758 172.466 225.758 172.466 225.758 172.466H224.476C224.476 172.466 224.476 172.466 224.476 172.462H224.131C224.131 172.466 224.126 172.466 224.126 172.466H222.978C222.978 172.466 222.976 172.466 222.976 172.462H222.633C222.633 172.466 222.633 172.466 222.633 172.466H222.232V169.337V168.46H222.795H222.812V168.106V167.299V166.932V166.128V165.934H222.549H222.144H221.686H219.891H219.432H219.027H218.566H216.77H216.312H215.906H215.442H213.65H213.189H212.786H212.321H210.983V166.524V166.891V167.703V168.062V168.461H211.561V169.338V172.467H210.506C210.506 172.467 210.506 172.467 210.506 172.463H210.162C210.162 172.467 210.162 172.467 210.162 172.467H209.388L208.817 173.37L208.274 174.24L207.709 175.127C207.709 175.125 207.709 175.125 207.709 175.125L207.563 175.366L207.271 175.821L207.109 176.08C207.11 176.08 207.11 176.083 207.11 176.083L206.825 176.535V176.533L206.677 176.77V176.773L206.233 177.478H210.114V179.008V194.79H208.291C208.289 194.79 208.289 194.788 208.289 194.786H207.733C207.733 194.788 207.733 194.79 207.736 194.79H205.982C205.984 194.79 205.986 194.788 205.986 194.786H205.434C205.434 194.788 205.432 194.79 205.43 194.79H203.293C203.293 194.79 203.293 194.788 203.292 194.786H202.74C202.74 194.788 202.746 194.79 202.746 194.79H200.988C200.992 194.79 200.992 194.788 200.992 194.786H200.44C200.439 194.788 200.439 194.79 200.438 194.79H198.305C198.305 194.79 198.305 194.788 198.303 194.786H197.747C197.747 194.788 197.749 194.79 197.749 194.79H195.998C196.001 194.79 196.001 194.788 196.001 194.786H195.448C195.448 194.788 195.444 194.79 195.444 194.79H193.31C193.31 194.79 193.308 194.788 193.308 194.786H192.755C192.755 194.788 192.756 194.79 192.756 194.79H191.008C191.008 194.79 191.008 194.788 191.012 194.786H190.456C190.456 194.788 190.452 194.79 190.452 194.79H188.32C188.319 194.79 188.318 194.788 188.318 194.786H187.763C187.763 194.788 187.766 194.79 187.766 194.79H186.051V174.394V172.831L186.067 172.837L186.339 173.004L187.983 174.007L188.074 173.794L188.236 173.422C188.236 173.422 188.236 173.422 188.236 173.418L188.655 172.437L188.759 172.201L189.228 171.107L189.014 170.971C189.018 170.974 189.018 170.974 189.02 170.974L188.349 170.544C188.349 170.546 188.353 170.546 188.355 170.548L186.464 169.349V169.345L186.051 169.087L185.417 168.683L185.169 168.524L169.402 158.491L169.391 158.472L169.386 158.48H169.383L168.613 158.969L168.231 159.216L167.54 159.657H167.535L167.091 159.942L165.866 160.721V160.719L164.987 161.28L163.323 162.339L162.943 162.578H162.945L161.861 163.268C161.861 163.268 161.861 163.268 161.859 163.268L160.858 163.905L159.131 165.005L158.688 165.287L158.093 165.663L157.71 165.908L152.582 169.17L152.32 169.337L150.505 170.489C150.509 170.489 150.509 170.489 150.509 170.487L149.714 170.995C149.715 170.995 149.715 170.992 149.715 170.992L149.55 171.098L150.094 172.374L150.207 172.646L150.789 174L152.725 172.823V174.388V194.788H151.039C151.039 194.788 151.042 194.786 151.045 194.784H150.491C150.491 194.786 150.488 194.788 150.488 194.788H148.353C148.351 194.788 148.346 194.786 148.346 194.784H147.798C147.799 194.786 147.799 194.788 147.799 194.788H146.046C146.046 194.788 146.05 194.786 146.05 194.784H145.495C145.495 194.786 145.491 194.788 145.491 194.788H143.358C143.358 194.788 143.358 194.786 143.358 194.784H142.798C142.801 194.786 142.801 194.788 142.803 194.788H141.048C141.048 194.788 141.052 194.786 141.052 194.784H140.502C140.498 194.786 140.498 194.788 140.498 194.788H138.359C138.359 194.788 138.359 194.786 138.359 194.784H137.805C137.805 194.786 137.808 194.788 137.808 194.788H136.052C136.055 194.788 136.055 194.786 136.055 194.784H135.501C135.501 194.786 135.501 194.788 135.497 194.788H133.361C133.361 194.788 133.36 194.786 133.36 194.784H132.805C132.805 194.786 132.805 194.788 132.806 194.788H131.053C131.057 194.788 131.057 194.786 131.057 194.784H130.504C130.499 194.786 130.499 194.788 130.499 194.788H128.364C128.362 194.788 128.362 194.786 128.359 194.784H127.808C127.808 194.786 127.813 194.788 127.813 194.788H127.635L127.108 195.602V192.479V190.944H130.994L130.547 190.24L130.398 190.001L130.116 189.554C130.116 189.55 130.116 189.55 130.116 189.55L129.952 189.293L129.66 188.837C129.665 188.835 129.665 188.835 129.665 188.835L129.514 188.597L128.951 187.705L128.222 186.55L127.835 185.937H127.061H126.714H125.664V182.804V181.927H126.24V181.531V181.168V180.356V179.991V179.4H124.901H124.438H124.032H123.571H121.781H121.321H120.914H120.45H118.657H118.196H117.793H117.333H115.54H115.08H114.673H114.411V179.596V180.401V180.772V181.576V181.927H114.428H114.989V182.804V185.937H114.589H114.246H113.097C113.094 185.937 113.094 185.937 113.094 185.937H112.749H112.751H111.47H111.124H109.975C109.972 185.937 109.972 185.937 109.972 185.937H109.63H108.351H108.008H106.853H106.514H105.23H104.889H103.737H103.393H102.112H101.769C101.766 185.937 101.766 185.937 101.766 185.937H100.615H100.269H100.273H98.9879H98.6462H97.4946H97.4926H97.1479H95.8686H95.529C95.529 185.937 95.529 185.937 95.5259 185.937H94.3743H94.0246H92.7433H92.3997H92.3977H91.251H91.247H90.9054H89.6211H89.2824H89.2784H88.1258H87.7982V183.939V182.588L90.4079 183.606L92.0831 181.098L84.0991 177.847V170.387V169.593H84.7724V167.4H73.9917V169.593H74.668V170.387V174.007L65.3113 170.198L65.2992 170.18L65.2962 170.186H65.2922L38.5062 181.093L40.1874 183.602L42.7962 182.581V183.934V206.573L23.931 190.753L23.928 190.749V190.753L23.9229 190.744L23.9089 190.764L14.8194 198.386V197.433V196.535H15.5892V194.053H3.38957V196.535H4.15732V197.433V207.33L0 210.82L1.89727 213.653L4.8477 211.136V213.21V281.886V358.697L417.138 358.725Z" fill="url(#paint0_linear_59_2990)"/>
<path d="M415.973 277.875C415.975 277.879 415.978 277.882 415.978 277.884H413.241C413.241 277.882 413.241 277.879 413.244 277.875H412.378C412.378 277.879 412.378 277.882 412.375 277.884H409.043C409.043 277.882 409.038 277.879 409.038 277.875H408.17C408.172 277.879 408.177 277.882 408.177 277.884H405.434C405.439 277.882 405.439 277.879 405.441 277.875H404.58C404.58 277.879 404.576 277.882 404.576 277.884H401.242C401.242 277.882 401.242 277.879 401.235 277.875H400.37C400.373 277.879 400.376 277.882 400.376 277.884H397.749V242.197L400.769 244.112L401.676 241.912L401.859 241.47L402.706 239.399L402.446 239.224C402.446 239.224 402.447 239.224 402.45 239.224L401.206 238.403C401.21 238.407 401.21 238.407 401.214 238.407L398.375 236.533L398.38 236.53L397.975 236.263L389.964 230.962L389.371 230.566L388.441 229.954L387.749 229.494L385.052 227.711L383.486 226.674L381.8 225.555L381.208 225.163L378.608 223.444L377.237 222.536C377.237 222.536 377.237 222.538 377.24 222.538L375.321 221.267L374.627 220.807L373.541 220.09L372.947 219.692L371.743 218.899V218.895H371.742L371.736 218.884L371.718 218.918L347.108 235.212L346.712 235.466C346.712 235.47 346.712 235.47 346.716 235.47L345.724 236.124L345.077 236.549C345.077 236.549 345.078 236.549 345.08 236.549L342.132 238.503C342.135 238.501 342.137 238.498 342.14 238.494L341.089 239.188C341.089 239.188 341.093 239.188 341.095 239.186L340.767 239.406L341.497 241.187L341.657 241.569L342.311 243.164C342.311 243.164 342.311 243.164 342.311 243.165L342.563 243.776L342.707 244.121L345.274 242.489L345.699 242.224C345.699 242.224 345.699 242.224 345.696 242.224L345.723 242.207V277.884H343.045C343.045 277.882 343.05 277.879 343.05 277.875H342.186C342.186 277.879 342.181 277.882 342.179 277.884H338.852C338.852 277.882 338.85 277.879 338.85 277.875H337.98C337.983 277.879 337.983 277.882 337.985 277.884H335.252C335.254 277.882 335.256 277.879 335.258 277.875H334.389C334.389 277.879 334.387 277.882 334.387 277.884H331.054C331.053 277.882 331.053 277.879 331.05 277.875H330.188C330.191 277.879 330.191 277.882 330.191 277.884H327.455C327.46 277.882 327.46 277.879 327.46 277.875H326.594C326.594 277.879 326.594 277.882 326.59 277.884H323.264C323.258 277.882 323.258 277.879 323.252 277.875H322.395C322.395 277.879 322.394 277.882 322.398 277.884H319.662C319.662 277.882 319.665 277.879 319.667 277.875H318.806C318.802 277.879 318.801 277.882 318.801 277.884H315.471C315.465 277.882 315.462 277.879 315.462 277.875H314.603C314.603 277.879 314.605 277.882 314.607 277.884H311.87C311.87 277.882 311.872 277.879 311.875 277.875H311.006C311.006 277.879 311.003 277.882 311.003 277.884H308.153V249.757H314.217L313.525 248.609L313.286 248.223L312.846 247.49C312.846 247.49 312.846 247.488 312.848 247.486L312.591 247.069L312.14 246.327C312.14 246.325 312.14 246.325 312.14 246.325L311.907 245.935L311.031 244.491L311.034 244.495L310.178 243.088L309.288 241.616H308.079C308.079 241.613 308.079 241.613 308.079 241.613H307.537C307.534 241.613 307.534 241.613 307.534 241.616H305.896V235.108H306.796V231H288.329V235.108H289.231V241.616H288.606C288.606 241.613 288.606 241.613 288.606 241.613H288.067C288.067 241.613 288.066 241.613 288.066 241.616H286.27C286.266 241.613 286.266 241.613 286.266 241.613H285.731C285.731 241.613 285.731 241.613 285.731 241.616H283.73C283.73 241.613 283.73 241.613 283.73 241.613H283.197C283.197 241.613 283.197 241.613 283.197 241.616H281.399C281.399 241.613 281.399 241.613 281.399 241.613H280.861C280.861 241.613 280.861 241.613 280.864 241.616H278.858C278.858 241.613 278.858 241.613 278.858 241.613H278.329C278.329 241.613 278.329 241.613 278.329 241.616H276.529C276.529 241.613 276.529 241.613 276.529 241.613H275.994C275.994 241.613 275.994 241.613 275.994 241.616H273.994C273.994 241.613 273.994 241.613 273.994 241.613H273.454C273.454 241.613 273.454 241.613 273.454 241.616H271.66C271.66 241.613 271.66 241.613 271.66 241.613H271.122C271.122 241.613 271.122 241.613 271.123 241.616H269.124C269.124 241.613 269.124 241.613 269.124 241.613H268.585C268.584 241.613 268.584 241.613 268.584 241.616H266.787C266.787 241.613 266.786 241.613 266.786 241.613H266.252C266.252 241.613 266.252 241.613 266.252 241.616H264.247C264.247 241.613 264.247 241.613 264.251 241.613H263.718C263.718 241.613 263.718 241.613 263.718 241.616H261.917C261.916 241.613 261.913 241.613 261.913 241.613H261.378C261.378 241.613 261.378 241.613 261.378 241.616H259.378C259.378 241.613 259.378 241.613 259.381 241.613H258.852C258.852 241.613 258.85 241.613 258.847 241.616H257.052C257.052 241.613 257.052 241.613 257.052 241.613H256.516C256.516 241.613 256.516 241.613 256.516 241.616H254.515C254.515 241.613 254.515 241.613 254.515 241.613H253.976C253.976 241.613 253.976 241.613 253.976 241.616H252.182C252.182 241.613 252.18 241.613 252.18 241.613H251.64C251.64 241.613 251.645 241.613 251.645 241.616H249.644C249.644 241.613 249.644 241.613 249.644 241.613H249.108C249.108 241.613 249.108 241.613 249.108 241.616H247.309C247.309 241.613 247.309 241.613 247.309 241.613H246.777C246.777 241.613 246.777 241.613 246.777 241.616H245.658L245.125 242.496L243.953 244.421C243.954 244.421 243.957 244.42 243.96 244.42L243.018 245.974C243.017 245.974 243.017 245.974 243.017 245.974L242.778 246.364L242.303 247.148L242.05 247.564L242.053 247.565L241.625 248.272L241.622 248.27L241.391 248.654L240.726 249.758H246.787V275.416L217.027 249.443L217.023 249.439V249.443L217.011 249.429L216.989 249.462L202.8 261.847V258.834H204.001V254.8H187.25V236.175L191.328 237.828L193.943 233.755L181.47 228.472V215.068H182.53V211.499H165.692V215.068H166.754V222.236L152.143 216.048L152.13 216.023L152.12 216.029H152.119L152.117 216.031L110.301 233.75L112.923 237.825L116.994 236.169V257.381L116.14 255.999H115.888C115.888 255.997 115.891 255.993 115.895 255.991H115.026C115.026 255.993 115.023 255.997 115.023 255.999H111.695C111.692 255.997 111.692 255.993 111.686 255.991H110.82C110.82 255.993 110.823 255.997 110.823 255.999H108.089C108.089 255.997 108.093 255.993 108.095 255.991H107.235C107.232 255.993 107.227 255.997 107.225 255.999H103.895C103.893 255.997 103.89 255.993 103.886 255.991H103.028C103.032 255.993 103.032 255.997 103.034 255.999H100.298C100.298 255.997 100.302 255.993 100.302 255.991H99.4431C99.4383 255.993 99.4373 255.997 99.4344 255.999H96.1065C96.1036 255.997 96.1036 255.993 96.1016 255.991H95.2333C95.2362 255.993 95.2362 255.997 95.2401 255.999H92.5062C92.5072 255.997 92.5072 255.993 92.5072 255.991H91.6447C91.6447 255.993 91.6428 255.997 91.6399 255.999H88.3081C88.3081 255.997 88.3032 255.993 88.3032 255.991H87.4378C87.4397 255.993 87.4436 255.997 87.4436 255.999H84.7098C84.7127 255.997 84.7127 255.993 84.7146 255.991H83.8463C83.8463 255.993 83.8434 255.997 83.8434 255.999H80.5184C80.5135 255.997 80.5106 255.993 80.5106 255.991H79.6432C79.6452 255.993 79.6452 255.997 79.6471 255.999H76.9792V220.32L76.9986 220.338C76.9956 220.338 76.9956 220.338 76.9956 220.338L77.4027 220.592L79.9912 222.237L80.06 222.069L80.3856 221.282L81.189 219.329L81.1996 219.304L81.9352 217.52L81.1347 216.992L80.56 216.607C80.561 216.612 80.5639 216.614 80.5707 216.616L75.9839 213.582L75.9131 213.534L68.6555 208.733L68.6284 208.712L67.6922 208.094L67.2377 207.792L61.0635 203.705L60.9743 203.648L54.5937 199.425L54.2158 199.173L52.8047 198.24L52.4355 197.994L50.9818 197.031L50.9654 197L50.9557 197.008L50.9547 197.012L49.7511 197.807L48.0706 198.92L47.7033 199.165L41.4923 203.276L41.0204 203.591L39.213 204.789H39.211L38.6993 205.128L34.5574 207.869L34.2569 208.067L33.3314 208.682L33.0126 208.89L26.5758 213.153L25.9682 213.554L24.624 214.443L24.3187 214.645H24.3226L21.4889 216.519C21.4899 216.518 21.4947 216.516 21.4947 216.514L20.2514 217.338C20.2562 217.336 20.2562 217.333 20.2601 217.333L19.9926 217.511L21.5636 221.324H21.5587L21.8843 222.112L21.9289 222.226L24.279 220.735L24.9487 220.312V255.998H22.3214C22.3243 255.996 22.3243 255.992 22.3262 255.99H21.4657C21.4608 255.992 21.4608 255.996 21.4579 255.998H18.1232C18.1222 255.996 18.1174 255.992 18.1174 255.99H17.2568C17.2578 255.992 17.2578 255.996 17.2626 255.998H14.5239C14.5278 255.996 14.5288 255.992 14.5288 255.99H13.6595V255.998H10.3267C10.3267 255.996 10.3228 255.992 10.3228 255.99H9.4584C9.46131 255.992 9.46325 255.996 9.46325 255.998H6.72648C6.72648 255.996 6.72842 255.992 6.72842 255.99H5.86592C5.86495 255.992 5.86204 255.996 5.86204 255.998H4.55762V359L416.572 358.979V277.876H415.973V277.875Z" fill="url(#paint1_linear_59_2990)"/>
<defs>
<linearGradient id="paint0_linear_59_2990" x1="210" y1="358.725" x2="210" y2="145" gradientUnits="userSpaceOnUse">
<stop offset="0.1758" stop-color="#004765"/>
<stop offset="0.3102" stop-color="#0086A4"/>
<stop offset="0.4995" stop-color="#41A2BF"/>
<stop offset="0.6819" stop-color="#4A9AB6"/>
<stop offset="0.8526" stop-color="#6AB3CE"/>
<stop offset="1" stop-color="#0F516C"/>
</linearGradient>
<linearGradient id="paint1_linear_59_2990" x1="210.565" y1="358.998" x2="210.565" y2="196.996" gradientUnits="userSpaceOnUse">
<stop stop-color="#007997"/>
<stop offset="0.7609" stop-color="#75BDD8"/>
<stop offset="1" stop-color="#478DA8"/>
</linearGradient>
</defs>
</svg>
