<svg width="5633" height="3079" viewBox="0 0 5633 3079" fill="none" xmlns="http://www.w3.org/2000/svg">
<path d="M1377.59 1857.61C1308.7 1880.46 1261.96 2100.27 1247.54 2004.65C1235.18 1922.67 1291.08 1724.5 1280.86 1614.93C1278.19 1586.25 1242.36 1583.35 1234.05 1611.62C1233.8 1612.47 1209.83 1795.83 1188.63 1849.86C1158.72 1926.09 1179.08 1741.34 1171.19 1575.26C1169.92 1548.39 1151.31 1535.97 1135.14 1541.15C1112.15 1548.52 1117.92 1574.22 1118.07 1613.1C1118.38 1689.74 1131.05 1865.81 1109.31 1854.23C1087.57 1842.66 1089.38 1617.98 1070.36 1572.5C1061.62 1551.63 1027.01 1559.53 1029.5 1598.88C1029.57 1599.86 1037.58 1732.07 1037.63 1732.99C1049.55 1962.86 1002.44 1901.32 971.349 1736.26C967.979 1718.38 962.16 1702.59 944.837 1704.88C900.095 1710.81 951.15 1862.59 971.686 1960.5C989.617 2045.97 1027.67 2118.24 1027.07 2231.65C1021.56 2521.84 995.55 2787.66 980.653 3078L1245.59 3062.98C1230.49 2936.27 1141.05 2348.09 1235.9 2260.26C1300.53 2200.4 1370.14 1937.35 1404.14 1884.13C1417.51 1863.2 1393.07 1852.48 1377.59 1857.61Z" fill="#6AEA65" fill-opacity="0.86"/>
<path d="M398.584 1990.33C340.449 2015.27 314.887 2209.52 295.902 2127.59C279.626 2057.35 314.589 1881.2 298.295 1786.85C294.032 1762.17 262.793 1762.3 257.514 1787.45C257.354 1788.21 249.041 1949.13 234.346 1997.6C213.61 2065.99 218.698 1904.12 200.588 1760.55C197.66 1737.33 180.693 1727.93 167.035 1733.62C147.613 1741.72 154.358 1763.59 157.135 1797.33C162.611 1863.83 185.544 2015.71 165.921 2007.28C146.298 1998.84 132.606 1803.69 113.036 1765.63C104.052 1748.16 74.5977 1757.58 79.4328 1791.55C79.553 1792.4 95.4727 1906.56 95.5773 1907.36C121.523 2105.99 76.5269 2056.06 38.3769 1915.1C34.2435 1899.83 28.1297 1886.56 13.2754 1889.83C-25.0858 1898.29 29.4566 2026.25 53.8983 2109.71C75.2387 2182.57 113.12 2242.47 120.298 2340.96C135.231 2593.24 130.755 2825.89 137.568 3079L366.085 3046.33C344.402 2937.47 226.961 2433.57 303.173 2350.31C355.104 2293.57 397.542 2060.09 423.39 2011.38C433.554 1992.22 411.646 1984.72 398.584 1990.33Z" fill="#6AEA65" fill-opacity="0.85"/>
<path d="M902.332 2054.46C840.411 2065.94 775.968 2250.06 774.035 2165.8C772.377 2093.57 842.341 1929.22 845.56 1833.43C846.403 1808.36 815.823 1801.57 805.552 1824.97C805.243 1825.67 764.437 1981.06 740.222 2025.16C706.057 2087.37 743.899 1930.35 755.34 1786.06C757.19 1762.73 742.505 1749.78 727.991 1752.31C707.352 1755.92 709.506 1778.79 705.373 1812.36C697.225 1878.55 688.816 2032.03 671.338 2019.44C653.858 2006.84 680.092 1813.14 668.68 1771.61C663.44 1752.55 632.718 1755.23 630.548 1789.49C630.495 1790.34 622.886 1905.41 622.826 1906.22C607.871 2106.04 574 2047.28 565.31 1901.1C564.367 1885.26 561.083 1870.94 545.891 1870.85C506.654 1870.61 534.016 2007.72 540.978 2094.68C547.056 2170.6 571.942 2237.52 558.966 2335.34C522.346 2585.14 470.728 2811.45 426 3060.26L656.136 3079C657.032 2967.83 644.483 2449.48 735.928 2385.02C798.24 2341.1 887.155 2122.39 922.326 2080.53C936.15 2064.07 916.245 2051.88 902.332 2054.46Z" fill="#6AEA65" fill-opacity="0.52"/>
<path d="M2785.65 1857.61C2716.9 1880.46 2670.26 2100.27 2655.88 2004.65C2643.54 1922.67 2699.32 1724.5 2689.12 1614.93C2686.46 1586.25 2650.7 1583.35 2642.41 1611.62C2642.16 1612.47 2618.24 1795.83 2597.09 1849.86C2567.24 1926.09 2587.55 1741.34 2579.69 1575.26C2578.41 1548.39 2559.84 1535.97 2543.71 1541.15C2520.76 1548.52 2526.52 1574.22 2526.68 1613.1C2526.99 1689.74 2539.63 1865.81 2517.93 1854.23C2496.24 1842.66 2498.04 1617.98 2479.06 1572.5C2470.35 1551.63 2435.8 1559.53 2438.29 1598.88C2438.35 1599.86 2446.35 1732.07 2446.4 1732.99C2458.3 1962.86 2411.28 1901.32 2380.26 1736.26C2376.89 1718.38 2371.09 1702.59 2353.8 1704.88C2309.15 1710.81 2360.1 1862.59 2380.59 1960.5C2398.49 2045.97 2436.47 2118.24 2435.86 2231.65C2430.36 2521.84 2404.41 2787.66 2389.54 3078L2653.92 3062.98C2638.86 2936.27 2549.61 2348.09 2644.26 2260.26C2708.76 2200.4 2778.21 1937.35 2812.15 1884.13C2825.49 1863.2 2801.1 1852.48 2785.65 1857.61Z" fill="#6AEA65"/>
<path d="M1807.52 1990.33C1749.25 2015.27 1723.63 2209.52 1704.6 2127.59C1688.28 2057.35 1723.33 1881.2 1706.99 1786.85C1702.72 1762.17 1671.41 1762.3 1666.12 1787.45C1665.96 1788.21 1657.63 1949.13 1642.9 1997.6C1622.11 2065.99 1627.21 1904.12 1609.06 1760.55C1606.12 1737.33 1589.12 1727.93 1575.43 1733.62C1555.96 1741.72 1562.72 1763.59 1565.5 1797.33C1570.99 1863.83 1593.98 2015.71 1574.31 2007.28C1554.64 1998.84 1540.92 1803.69 1521.3 1765.63C1512.3 1748.16 1482.77 1757.58 1487.62 1791.55C1487.74 1792.4 1503.7 1906.56 1503.8 1907.36C1529.81 2105.99 1484.71 2056.06 1446.47 1915.1C1442.32 1899.83 1436.2 1886.56 1421.31 1889.83C1382.86 1898.29 1437.53 2026.25 1462.02 2109.71C1483.42 2182.57 1521.39 2242.47 1528.58 2340.96C1543.55 2593.24 1539.06 2825.89 1545.89 3079L1774.94 3046.33C1753.21 2937.47 1635.49 2433.57 1711.88 2350.31C1763.94 2293.57 1806.48 2060.09 1832.38 2011.38C1842.57 1992.22 1820.61 1984.72 1807.52 1990.33Z" fill="#6AEA65" fill-opacity="0.81"/>
<path d="M2310.33 2054.46C2248.41 2065.94 2183.97 2250.06 2182.03 2165.8C2180.38 2093.57 2250.34 1929.22 2253.56 1833.43C2254.4 1808.36 2223.82 1801.57 2213.55 1824.97C2213.24 1825.67 2172.44 1981.06 2148.22 2025.16C2114.06 2087.37 2151.9 1930.35 2163.34 1786.06C2165.19 1762.73 2150.5 1749.78 2135.99 1752.31C2115.35 1755.92 2117.51 1778.79 2113.37 1812.36C2105.22 1878.55 2096.82 2032.03 2079.34 2019.44C2061.86 2006.84 2088.09 1813.14 2076.68 1771.61C2071.44 1752.55 2040.72 1755.23 2038.55 1789.49C2038.5 1790.34 2030.89 1905.41 2030.83 1906.22C2015.87 2106.04 1982 2047.28 1973.31 1901.1C1972.37 1885.26 1969.08 1870.94 1953.89 1870.85C1914.65 1870.61 1942.02 2007.72 1948.98 2094.68C1955.06 2170.6 1979.94 2237.52 1966.97 2335.34C1930.35 2585.14 1878.73 2811.45 1834 3060.26L2064.14 3079C2065.03 2967.83 2052.48 2449.48 2143.93 2385.02C2206.24 2341.1 2295.15 2122.39 2330.33 2080.53C2344.15 2064.07 2324.25 2051.88 2310.33 2054.46Z" fill="#6AEA65" fill-opacity="0.95"/>
<path d="M4194.59 1857.61C4125.7 1880.46 4078.96 2100.27 4064.54 2004.65C4052.18 1922.67 4108.08 1724.5 4097.86 1614.93C4095.19 1586.25 4059.36 1583.35 4051.05 1611.62C4050.8 1612.47 4026.83 1795.83 4005.63 1849.86C3975.72 1926.09 3996.08 1741.34 3988.19 1575.26C3986.92 1548.39 3968.31 1535.97 3952.14 1541.15C3929.15 1548.52 3934.92 1574.22 3935.07 1613.1C3935.38 1689.74 3948.05 1865.81 3926.31 1854.23C3904.57 1842.66 3906.38 1617.98 3887.36 1572.5C3878.62 1551.63 3844.01 1559.53 3846.5 1598.88C3846.57 1599.86 3854.58 1732.07 3854.63 1732.99C3866.55 1962.86 3819.44 1901.32 3788.35 1736.26C3784.98 1718.38 3779.16 1702.59 3761.84 1704.88C3717.1 1710.81 3768.15 1862.59 3788.69 1960.5C3806.62 2045.97 3844.67 2118.24 3844.07 2231.65C3838.56 2521.84 3812.55 2787.66 3797.65 3078L4062.59 3062.98C4047.49 2936.27 3958.05 2348.09 4052.9 2260.26C4117.53 2200.4 4187.14 1937.35 4221.14 1884.13C4234.51 1863.2 4210.07 1852.48 4194.59 1857.61Z" fill="#6AEA65" fill-opacity="0.69"/>
<path d="M3215.58 1990.33C3157.45 2015.27 3131.89 2209.52 3112.9 2127.59C3096.63 2057.35 3131.59 1881.2 3115.29 1786.85C3111.03 1762.17 3079.79 1762.3 3074.51 1787.45C3074.35 1788.21 3066.04 1949.13 3051.35 1997.6C3030.61 2065.99 3035.7 1904.12 3017.59 1760.55C3014.66 1737.33 2997.69 1727.93 2984.03 1733.62C2964.61 1741.72 2971.36 1763.59 2974.14 1797.33C2979.61 1863.83 3002.54 2015.71 2982.92 2007.28C2963.3 1998.84 2949.61 1803.69 2930.04 1765.63C2921.05 1748.16 2891.6 1757.58 2896.43 1791.55C2896.55 1792.4 2912.47 1906.56 2912.58 1907.36C2938.52 2105.99 2893.53 2056.06 2855.38 1915.1C2851.24 1899.83 2845.13 1886.56 2830.28 1889.83C2791.91 1898.29 2846.46 2026.25 2870.9 2109.71C2892.24 2182.57 2930.12 2242.47 2937.3 2340.96C2952.23 2593.24 2947.75 2825.89 2954.57 3079L3183.09 3046.33C3161.4 2937.47 3043.96 2433.57 3120.17 2350.31C3172.1 2293.57 3214.54 2060.09 3240.39 2011.38C3250.55 1992.22 3228.65 1984.72 3215.58 1990.33Z" fill="#6AEA65" fill-opacity="0.96"/>
<path d="M3719.33 2054.46C3657.41 2065.94 3592.97 2250.06 3591.03 2165.8C3589.38 2093.57 3659.34 1929.22 3662.56 1833.43C3663.4 1808.36 3632.82 1801.57 3622.55 1824.97C3622.24 1825.67 3581.44 1981.06 3557.22 2025.16C3523.06 2087.37 3560.9 1930.35 3572.34 1786.06C3574.19 1762.73 3559.5 1749.78 3544.99 1752.31C3524.35 1755.92 3526.51 1778.79 3522.37 1812.36C3514.22 1878.55 3505.82 2032.03 3488.34 2019.44C3470.86 2006.84 3497.09 1813.14 3485.68 1771.61C3480.44 1752.55 3449.72 1755.23 3447.55 1789.49C3447.5 1790.34 3439.89 1905.41 3439.83 1906.22C3424.87 2106.04 3391 2047.28 3382.31 1901.1C3381.37 1885.26 3378.08 1870.94 3362.89 1870.85C3323.65 1870.61 3351.02 2007.72 3357.98 2094.68C3364.06 2170.6 3388.94 2237.52 3375.97 2335.34C3339.35 2585.14 3287.73 2811.45 3243 3060.26L3473.14 3079C3474.03 2967.83 3461.48 2449.48 3552.93 2385.02C3615.24 2341.1 3704.15 2122.39 3739.33 2080.53C3753.15 2064.07 3733.25 2051.88 3719.33 2054.46Z" fill="#6AEA65" fill-opacity="0.69"/>
<path d="M5602.59 1857.61C5533.7 1880.46 5486.96 2100.27 5472.54 2004.65C5460.18 1922.67 5516.08 1724.5 5505.86 1614.93C5503.19 1586.25 5467.36 1583.35 5459.05 1611.62C5458.8 1612.47 5434.83 1795.83 5413.63 1849.86C5383.72 1926.09 5404.08 1741.34 5396.19 1575.26C5394.92 1548.39 5376.31 1535.97 5360.14 1541.15C5337.15 1548.52 5342.92 1574.22 5343.07 1613.1C5343.38 1689.74 5356.05 1865.81 5334.31 1854.23C5312.57 1842.66 5314.38 1617.98 5295.36 1572.5C5286.62 1551.63 5252.01 1559.53 5254.5 1598.88C5254.57 1599.86 5262.58 1732.07 5262.63 1732.99C5274.55 1962.86 5227.44 1901.32 5196.35 1736.26C5192.98 1718.38 5187.16 1702.59 5169.84 1704.88C5125.1 1710.81 5176.15 1862.59 5196.69 1960.5C5214.62 2045.97 5252.67 2118.24 5252.07 2231.65C5246.56 2521.84 5220.55 2787.66 5205.65 3078L5470.59 3062.98C5455.49 2936.27 5366.05 2348.09 5460.9 2260.26C5525.53 2200.4 5595.14 1937.35 5629.14 1884.13C5642.51 1863.2 5618.07 1852.48 5602.59 1857.61Z" fill="#6AEA65"/>
<path d="M4623.58 1990.33C4565.45 2015.27 4539.89 2209.52 4520.9 2127.59C4504.63 2057.35 4539.59 1881.2 4523.29 1786.85C4519.03 1762.17 4487.79 1762.3 4482.51 1787.45C4482.35 1788.21 4474.04 1949.13 4459.35 1997.6C4438.61 2065.99 4443.7 1904.12 4425.59 1760.55C4422.66 1737.33 4405.69 1727.93 4392.03 1733.62C4372.61 1741.72 4379.36 1763.59 4382.14 1797.33C4387.61 1863.83 4410.54 2015.71 4390.92 2007.28C4371.3 1998.84 4357.61 1803.69 4338.04 1765.63C4329.05 1748.16 4299.6 1757.58 4304.43 1791.55C4304.55 1792.4 4320.47 1906.56 4320.58 1907.36C4346.52 2105.99 4301.53 2056.06 4263.38 1915.1C4259.24 1899.83 4253.13 1886.56 4238.28 1889.83C4199.91 1898.29 4254.46 2026.25 4278.9 2109.71C4300.24 2182.57 4338.12 2242.47 4345.3 2340.96C4360.23 2593.24 4355.75 2825.89 4362.57 3079L4591.09 3046.33C4569.4 2937.47 4451.96 2433.57 4528.17 2350.31C4580.1 2293.57 4622.54 2060.09 4648.39 2011.38C4658.55 1992.22 4636.65 1984.72 4623.58 1990.33Z" fill="#6AEA65"/>
<path d="M5127.33 2054.46C5065.41 2065.94 5000.97 2250.06 4999.03 2165.8C4997.38 2093.57 5067.34 1929.22 5070.56 1833.43C5071.4 1808.36 5040.82 1801.57 5030.55 1824.97C5030.24 1825.67 4989.44 1981.06 4965.22 2025.16C4931.06 2087.37 4968.9 1930.35 4980.34 1786.06C4982.19 1762.73 4967.5 1749.78 4952.99 1752.31C4932.35 1755.92 4934.51 1778.79 4930.37 1812.36C4922.22 1878.55 4913.82 2032.03 4896.34 2019.44C4878.86 2006.84 4905.09 1813.14 4893.68 1771.61C4888.44 1752.55 4857.72 1755.23 4855.55 1789.49C4855.5 1790.34 4847.89 1905.41 4847.83 1906.22C4832.87 2106.04 4799 2047.28 4790.31 1901.1C4789.37 1885.26 4786.08 1870.94 4770.89 1870.85C4731.65 1870.61 4759.02 2007.72 4765.98 2094.68C4772.06 2170.6 4796.94 2237.52 4783.97 2335.34C4747.35 2585.14 4695.73 2811.45 4651 3060.26L4881.14 3079C4882.03 2967.83 4869.48 2449.48 4960.93 2385.02C5023.24 2341.1 5112.15 2122.39 5147.33 2080.53C5161.15 2064.07 5141.25 2051.88 5127.33 2054.46Z" fill="#6AEA65"/>
</svg>
